<?xml version="1.0" standalone="no"?>
<svg xmlns="http://www.w3.org/2000/svg" version="1.1" xmlns:xlink="http://www.w3.org/1999/xlink" width="512" height="512" x="0" y="0" viewBox="0 0 32 32" style="enable-background:new 0 0 512 512" xml:space="preserve" class=""><g><path d="M16.75 5c0 2.17-4.56 2.75-7.25 2.75S2.25 7.17 2.25 5 6.81 2.25 9.5 2.25s7.25.58 7.25 2.75zM2.63 10.25c2.02 1.39 5.77 1.5 6.87 1.5s4.85-.11 6.82-1.47c.14-.08.29-.17.43-.26V7.65c-2.1 1.45-5.81 1.6-7.25 1.6s-5.15-.16-7.25-1.6v2.37c.13.08.26.16.38.23zm6.87 3c-1.46 0-4.95-.17-7.25-1.49V13c0 2.17 4.56 2.75 7.25 2.75s7.25-.58 7.25-2.75v-1.24c-2.26 1.32-5.78 1.49-7.25 1.49zm13 3c-2.69 0-7.25.58-7.25 2.75s4.56 2.75 7.25 2.75 7.25-.58 7.25-2.75-4.56-2.75-7.25-2.75zm-6.87 8c2.02 1.39 5.77 1.5 6.87 1.5s4.85-.11 6.82-1.47c.14-.08.29-.17.43-.26v-2.37c-2.1 1.45-5.81 1.6-7.25 1.6s-5.15-.16-7.25-1.6v2.37c.13.08.26.16.38.23zm6.87 3c-1.46 0-4.95-.17-7.25-1.49V27c0 2.17 4.56 2.75 7.25 2.75s7.25-.58 7.25-2.75v-1.24c-2.26 1.32-5.78 1.49-7.25 1.49zm1-13.25V8.25c0-1.52-1.23-2.75-2.75-2.75H19c-.41 0-.75.34-.75.75s.34.75.75.75h1.75c.69 0 1.25.56 1.25 1.25V14c0 .41.34.75.75.75s.75-.34.75-.75zm-9.75 11.75c0-.41-.34-.75-.75-.75h-1.75c-.69 0-1.25-.56-1.25-1.25V18c0-.41-.34-.75-.75-.75s-.75.34-.75.75v5.75c0 1.52 1.23 2.75 2.75 2.75H13c.41 0 .75-.34.75-.75z" fill="#ffffff" opacity="1" data-original="#000000" class=""/></g></svg>