<?xml version="1.0" standalone="no"?>
<svg xmlns="http://www.w3.org/2000/svg" version="1.1" xmlns:xlink="http://www.w3.org/1999/xlink" width="512" height="512" x="0" y="0" viewBox="0 0 512 512" style="enable-background:new 0 0 512 512" xml:space="preserve"><g><path fill-rule="evenodd" d="M111.48 106.84c-8.21 8.35-10.09 27.47-4.1 41.75 3.64 8.69 11.44 19.04 27.95 19.04 16.49 0 24.29-10.35 27.93-19.03 5.99-14.29 4.11-33.41-4.1-41.76-6.28-6.4-13.4-9.12-23.81-9.12-10.45-.01-17.59 2.71-23.87 9.12zM348.3 282.86H180.44v5.3c0 46.28 37.65 83.93 83.93 83.93s83.93-37.65 83.93-83.93zm17.18-134.27c3.64 8.69 11.45 19.04 27.95 19.04 16.49 0 24.29-10.35 27.93-19.03 5.99-14.29 4.11-33.41-4.1-41.76-6.28-6.4-13.41-9.12-23.81-9.12-10.45 0-17.59 2.72-23.87 9.12-8.21 8.35-10.09 27.46-4.1 41.75zm7.32 122.27v-23.27c0-33.38-20.42-62.79-51.29-74.66l-51.86 96.33a6.16 6.16 0 0 1-1.25 1.6h57.27v-25.9c0-3.31 2.69-6 6-6s6 2.69 6 6v25.9zm12-23.27c0-16.57-4.38-32.49-12.72-46.58.98-.06 1.97-.1 2.95-.1h36.78c27.35 0 49.61 24.13 49.61 53.79v6.94c0 5.09-4.14 9.22-9.23 9.22H384.8zm-216.36 35.27v5.3c0 52.89 43.03 95.93 95.93 95.93 52.89 0 95.93-43.04 95.93-95.93v-5.3h91.89c3.31 0 6.43-.78 9.23-2.14v34.17c0 4.34-3.54 7.87-7.88 7.87h-33.67c-8.74 0-16.15 5.37-18.88 13.67-2.24 6.82-5.03 13.53-8.28 19.96-3.95 7.8-2.51 16.85 3.67 23.03l23.82 23.82c1.48 1.48 2.29 3.45 2.29 5.57 0 2.1-.81 4.08-2.29 5.56l-33.01 33.01c-1.48 1.48-3.46 2.3-5.57 2.3s-4.08-.82-5.57-2.3l-23.82-23.82c-6.19-6.18-15.23-7.62-23.03-3.67-6.42 3.25-13.14 6.04-19.96 8.28-8.3 2.73-13.67 10.14-13.67 18.88v33.67c0 4.34-3.53 7.87-7.88 7.87H241c-4.34 0-7.87-3.53-7.87-7.87v-33.67c0-8.74-5.37-16.15-13.67-18.88-6.82-2.24-13.54-5.03-19.96-8.28-7.81-3.95-16.85-2.51-23.03 3.68l-23.82 23.81c-3.07 3.07-8.06 3.07-11.13 0l-33.01-33.01c-3.07-3.07-3.07-8.06 0-11.13l23.82-23.82c6.19-6.19 7.63-15.23 3.67-23.03-3.25-6.43-6.04-13.14-8.28-19.96-2.73-8.3-10.14-13.67-18.88-13.67H75.2c-4.34 0-7.87-3.53-7.87-7.87v-34.17c2.79 1.36 5.92 2.14 9.22 2.14zm-24.51-35.27c0-16.57 4.38-32.49 12.72-46.58-.98-.06-1.96-.1-2.95-.1h-36.77c-27.35 0-49.61 24.13-49.61 53.79v6.94c0 5.09 4.14 9.22 9.22 9.22h67.38v-23.27zm115.16 21.67c.33.61.76 1.15 1.25 1.6h-57.27v-25.9c0-3.31-2.69-6-6-6-3.32 0-6 2.69-6 6v25.9h-35.13v-23.27c0-33.38 20.42-62.79 51.29-74.66zm2.49-71.1c1.69-6.16.58-12.42-3.14-17.62l-9.24-12.93h30.34l-9.21 12.89c-3.74 5.23-4.85 11.53-3.11 17.73l9.26 33.06-12.1 22.48-11.95-22.19zM227.87 44.62c-12.8 13.03-15.72 41.51-6.51 63.49 4.58 10.93 16.26 29.26 43.02 29.26 26.74 0 38.41-18.33 43-29.26 9.22-21.98 6.3-50.46-6.51-63.49-9.54-9.7-20.78-14.03-36.45-14.03-15.74 0-27.01 4.33-36.55 14.03z" clip-rule="evenodd" fill="#ffffff" opacity="1" data-original="#000000"/></g></svg>