<?xml version="1.0" encoding="UTF-8"?>
<svg id="Layer_1" data-name="Layer 1" xmlns="http://www.w3.org/2000/svg" viewBox="0 0 750 486">
  <defs>
    <style>
      .cls-1 {
        fill: #e06522;
      }

      .cls-2 {
        fill: #fff;
      }
    </style>
  </defs>
  <g>
    <path class="cls-2" d="M124.19,175.74l64.02,147.82h-23.79l-15.46-37.44h-71.8l-15.25,37.44h-22.82l62.93-147.82h22.17ZM141.6,268.16l-16.98-41.23c-3.39-7.86-5.91-14.05-7.57-18.56-1.66-4.51-3.14-9.32-4.43-14.45-1.08,3.97-2.36,7.92-3.84,11.85-1.48,3.93-4.34,11.13-8.6,21.59l-16.33,40.8h57.74Z"/>
    <path class="cls-2" d="M263.68,215.01v13.35h-44.9v31.87h41.64v13.35h-41.64v36.79h46.17v13.19h-61.67v-108.55h60.4Z"/>
    <path class="cls-2" d="M335.12,213.02c10.91,0,20.36,2.4,28.33,7.19,7.97,4.8,14.03,11.44,18.16,19.95,4.13,8.5,6.2,18.24,6.2,29.2,0,8.58-1.21,16.36-3.62,23.32-2.41,6.97-5.91,12.91-10.49,17.84-4.58,4.93-10.08,8.69-16.49,11.28-6.41,2.59-13.62,3.89-21.62,3.89-10.86,0-20.29-2.42-28.29-7.27-8-4.85-14.08-11.55-18.24-20.11-4.16-8.56-6.24-18.21-6.24-28.97,0-8.11,1.16-15.59,3.5-22.45,2.33-6.86,5.72-12.81,10.17-17.84,4.45-5.03,9.97-8.97,16.57-11.8,6.6-2.83,13.95-4.25,22.05-4.25ZM334.96,225.26c-6.94,0-13.13,1.84-18.56,5.52-5.43,3.68-9.62,8.87-12.56,15.58-2.94,6.7-4.41,14.32-4.41,22.85,0,6.31.87,12.24,2.62,17.8,1.75,5.56,4.24,10.32,7.47,14.26,3.23,3.95,7.03,6.97,11.4,9.06,4.37,2.09,9.2,3.14,14.5,3.14s9.97-1.06,14.34-3.18c4.37-2.12,8.18-5.17,11.44-9.14,3.26-3.97,5.73-8.57,7.43-13.79,1.7-5.22,2.54-11.06,2.54-17.52,0-6.78-.85-12.89-2.54-18.32-1.7-5.43-4.17-10.13-7.43-14.11-3.26-3.97-7.11-6.99-11.56-9.06-4.45-2.07-9.35-3.1-14.7-3.1Z"/>
    <path class="cls-2" d="M496.44,215.01v108.55h-20.03l-34.33-58.89c-5.93-10.49-10.03-17.92-12.28-22.29-2.25-4.37-4.25-9.36-6-14.98.9,11.92,1.35,25.59,1.35,41.01v55.15h-15.5v-108.55h21.14l36.95,63.97c7.47,12.98,12.48,23.34,15.02,31.07-.69-7.26-1.09-12.13-1.19-14.62-.11-4.24-.2-8.42-.28-12.56-.08-4.13-.13-6.73-.16-7.79-.03-1.06-.04-3.68-.04-7.87v-52.21h15.34Z"/>
  </g>
  <g>
    <path class="cls-1" d="M273.11,335.5h8.65c2.95,0,5.29.1,7,.31,2.79.27,5.39.98,7.79,2.15s4.43,2.66,6.09,4.48c1.66,1.81,2.94,3.91,3.85,6.28.91,2.37,1.36,4.98,1.36,7.81,0,2.26-.33,4.43-.99,6.51-.66,2.08-1.59,3.95-2.8,5.61-1.2,1.66-2.67,3.11-4.4,4.34-1.73,1.23-3.66,2.19-5.77,2.89-1.06.37-2.12.64-3.18.82s-2.23.32-3.5.41c-1.27.09-2.81.14-4.6.14h-9.5v-41.73ZM279.07,340.64v31.53h3.06c2.75,0,4.84-.1,6.26-.31,1.43-.2,2.86-.6,4.31-1.19,1.81-.79,3.38-1.89,4.69-3.3,1.31-1.41,2.32-3.05,3.02-4.95.7-1.89,1.05-3.92,1.05-6.08,0-1.65-.23-3.26-.7-4.83-.47-1.57-1.14-2.99-2.02-4.28-.88-1.28-1.92-2.4-3.15-3.36s-2.57-1.68-4.03-2.17c-.94-.37-2.13-.64-3.59-.81s-3.39-.26-5.79-.26h-3.12Z"/>
    <path class="cls-1" d="M322.54,335.5v41.73h-5.96v-41.73h5.96Z"/>
    <path class="cls-1" d="M365.52,337.24l-.4,5.77c-1.67-.94-3.34-1.62-5.01-2.05-1.67-.43-3.54-.64-5.62-.64-3.3,0-6.22.67-8.77,2-2.55,1.33-4.52,3.21-5.91,5.64s-2.09,5.15-2.09,8.19.71,6.01,2.12,8.51c1.41,2.5,3.41,4.42,6,5.77,2.58,1.35,5.54,2.03,8.88,2.03,1.75,0,3.63-.28,5.64-.85v-12.07h-8.94v-5.07h14.9v21.14c-2.1.69-4.09,1.19-5.97,1.48-1.88.3-3.88.44-5.97.44-3.48,0-6.64-.49-9.47-1.47-2.83-.98-5.27-2.41-7.33-4.31-2.06-1.89-3.61-4.15-4.66-6.78s-1.57-5.59-1.57-8.89c0-4.34,1-8.08,3.01-11.23,2.01-3.15,4.73-5.53,8.19-7.16,3.45-1.63,7.32-2.44,11.59-2.44s7.95.66,11.39,1.99Z"/>
    <path class="cls-1" d="M383.03,335.5v41.73h-5.96v-41.73h5.96Z"/>
    <path class="cls-1" d="M421.55,335.5v5.13h-13.08v36.6h-5.96v-36.6h-13.32v-5.13h32.35Z"/>
    <path class="cls-1" d="M446.28,335.5l18.07,41.73h-6.72l-4.37-10.57h-20.27l-4.3,10.57h-6.44l17.77-41.73h6.26ZM451.19,361.59l-4.79-11.64c-.96-2.22-1.67-3.97-2.14-5.24-.47-1.27-.89-2.63-1.25-4.08-.31,1.12-.67,2.24-1.08,3.34-.42,1.11-1.23,3.14-2.43,6.09l-4.61,11.52h16.3Z"/>
    <path class="cls-1" d="M475.99,335.5v36.66h17.63v5.07h-23.58v-41.73h5.96Z"/>
  </g>
  <path class="cls-2" d="M655.45,342.42h-.89c-.3,0-.44-.15-.44-.44l-63.38-63.61-62.05,63.38c-.44.44-.96.66-1.55.66h-19.28c-1.18,0-1.77-.66-1.77-1.99v-.67c0-.29.15-.59.44-.89l68.26-70.48-62.05-62.72c-.3-.15-.44-.37-.44-.66v-.66c0-1.48.74-2.22,2.22-2.22h20.17c.29,0,.52.15.66.44l55.63,56.29,54.74-56.29c.15-.29.59-.44,1.33-.44h18.84c1.18,0,1.77.74,1.77,2.22v.66c0,.3-.15.52-.44.66l-61.17,62.72,69.37,70.48c.29.3.44.59.44.89v.67c0,1.33-.59,1.99-1.77,1.99h-18.62Z"/>
  <polygon class="cls-1" points="712.38 120.05 591.06 248.94 531.74 186.41 591.68 226.37 712.38 120.05"/>
</svg>