<?xml version="1.0" standalone="no"?>
<svg xmlns="http://www.w3.org/2000/svg" version="1.1" xmlns:xlink="http://www.w3.org/1999/xlink" width="512" height="512" x="0" y="0" viewBox="0 0 66 66" style="enable-background:new 0 0 512 512" xml:space="preserve" class=""><g><circle cx="7" cy="7" r="5" fill="#ffffff" opacity="1" data-original="#000000" class=""/><circle cx="40" cy="7" r="5" fill="#ffffff" opacity="1" data-original="#000000" class=""/><circle cx="26" cy="59" r="5" fill="#ffffff" opacity="1" data-original="#000000" class=""/><circle cx="59" cy="59" r="5" fill="#ffffff" opacity="1" data-original="#000000" class=""/><path d="M49.71 56.29a.996.996 0 1 0-1.41 1.41l.29.3H32.92c.05.33.08.66.08 1s-.03.67-.08 1h15.67l-.29.29a.996.996 0 0 0 0 1.41c.19.2.44.3.7.3s.51-.1.71-.29l2-2a.996.996 0 0 0 0-1.41zM43.93 18.47l-3.09 2.29a14.37 14.37 0 0 0-4.72-1.95L35.54 15h-5.09l-.57 3.81c-1.71.37-3.3 1.04-4.72 1.95l-3.09-2.29-3.6 3.6 2.29 3.09c-.91 1.42-1.58 3.02-1.96 4.72l-3.8.57v5.09l3.81.57c.37 1.71 1.04 3.3 1.96 4.72l-2.29 3.09 3.6 3.6 3.09-2.29c1.42.91 3.01 1.58 4.72 1.95l.57 3.82h5.09l.57-3.81c1.71-.37 3.3-1.04 4.72-1.95l3.09 2.29 3.6-3.6-2.29-3.09c.91-1.42 1.58-3.01 1.96-4.72l3.8-.57v-5.09l-3.81-.57c-.37-1.71-1.04-3.3-1.96-4.72l2.29-3.09zM33 39.87c-3.79 0-6.87-3.08-6.87-6.87s3.08-6.87 6.87-6.87 6.87 3.08 6.87 6.87-3.07 6.87-6.87 6.87zM16.71 56.29a.996.996 0 1 0-1.41 1.41l.29.3H15C8.38 58 3 52.62 3 46c0-5.93 4.33-10.86 10-11.82v-2.02C6.23 33.14 1 38.96 1 46c0 7.72 6.28 14 14 14h.59l-.29.29a.996.996 0 0 0 0 1.41c.19.2.44.3.7.3s.51-.1.71-.29l2-2a.996.996 0 0 0 0-1.41zM29.59 8l-.29.29a.996.996 0 0 0 0 1.41c.19.2.44.3.7.3s.51-.1.71-.29l2-2a1 1 0 0 0 0-1.42l-2-2A.996.996 0 1 0 29.3 5.7l.29.3H13.92c.05.33.08.66.08 1s-.03.67-.08 1zM53 31.82v2.02c6.77-.98 12-6.8 12-13.84 0-7.72-6.28-14-14-14h-4.08c.05.33.08.66.08 1s-.03.67-.08 1H51c6.62 0 12 5.38 12 12 0 5.93-4.33 10.86-10 11.82z" fill="#ffffff" opacity="1" data-original="#000000" class=""/></g></svg>